HIERARCHY
ROOT Hips
{
  OFFSET -0.589095 22.1471 2.58842
  CHANNELS 6 Xposition Yposition Zposition Zrotation Xrotation Yrotation
  JOINT BN_Bip01_Pelvis
  {
    OFFSET -3.49357 -5.29363 -0.000213444
    CHANNELS 6 Xposition Yposition Zposition Zrotation Xrotation Yrotation
    JOINT BN_leg_R_01
    {
      OFFSET 10.8127 -7.82778 -6.29737
      CHANNELS 6 Xposition Yposition Zposition Zrotation Xrotation Yrotation
      JOINT BN_leg_R_02
      {
        OFFSET 8.91071 0 0
        CHANNELS 6 Xposition Yposition Zposition Zrotation Xrotation Yrotation
        JOINT BN_leg_R_03
        {
          OFFSET 15.6024 0 0
          CHANNELS 6 Xposition Yposition Zposition Zrotation Xrotation Yrotation
          JOINT BN_leg_R_04
          {
            OFFSET 9.68174 0 0
            CHANNELS 6 Xposition Yposition Zposition Zrotation Xrotation Yrotation
            JOINT BN_leg_R_05
            {
              OFFSET 10.6982 0 0
              CHANNELS 6 Xposition Yposition Zposition Zrotation Xrotation Yrotation
              JOINT BN_Leg_R_05Nub
              {
                OFFSET 11.1504 0 0
                CHANNELS 6 Xposition Yposition Zposition Zrotation Xrotation Yrotation
                End Site
                {
                  OFFSET 0 0 0
                }
              }
            }
          }
        }
      }
    }
    JOINT BN_leg_R_06
    {
      OFFSET 6.51511 -7.99898 -4.29089
      CHANNELS 6 Xposition Yposition Zposition Zrotation Xrotation Yrotation
      JOINT BN_Leg_R_07
      {
        OFFSET 9.03709 0 0
        CHANNELS 6 Xposition Yposition Zposition Zrotation Xrotation Yrotation
        JOINT BN_Leg_R_08
        {
          OFFSET 18.7638 0 0
          CHANNELS 6 Xposition Yposition Zposition Zrotation Xrotation Yrotation
          JOINT BN_Leg_R_09
          {
            OFFSET 10.9666 0 0
            CHANNELS 6 Xposition Yposition Zposition Zrotation Xrotation Yrotation
            JOINT BN_Leg_R_10
            {
              OFFSET 10.8726 0 0
              CHANNELS 6 Xposition Yposition Zposition Zrotation Xrotation Yrotation
              JOINT BN_Leg_R_10Nub
              {
                OFFSET 11.2648 0 0
                CHANNELS 6 Xposition Yposition Zposition Zrotation Xrotation Yrotation
                End Site
                {
                  OFFSET 0 0 0
                }
              }
            }
          }
        }
      }
    }
    JOINT BN_Leg_R_11
    {
      OFFSET 2.71429 -8.18693 -0.209972
      CHANNELS 6 Xposition Yposition Zposition Zrotation Xrotation Yrotation
      JOINT BN_Leg_R_12
      {
        OFFSET 9.8713 0 0
        CHANNELS 6 Xposition Yposition Zposition Zrotation Xrotation Yrotation
        JOINT BN_Leg_R_13
        {
          OFFSET 21.8657 0 0
          CHANNELS 6 Xposition Yposition Zposition Zrotation Xrotation Yrotation
          JOINT BN_Leg_R_14
          {
            OFFSET 11.0011 0 0
            CHANNELS 6 Xposition Yposition Zposition Zrotation Xrotation Yrotation
            JOINT BN_Leg_R_15
            {
              OFFSET 12.8798 0 0
              CHANNELS 6 Xposition Yposition Zposition Zrotation Xrotation Yrotation
              JOINT BN_Leg_R_15Nub
              {
                OFFSET 13.0642 0 0
                CHANNELS 6 Xposition Yposition Zposition Zrotation Xrotation Yrotation
                End Site
                {
                  OFFSET 0 0 0
                }
              }
            }
          }
        }
      }
    }
    JOINT BN_Leg_L_11
    {
      OFFSET 2.7143 8.18692 -0.209982
      CHANNELS 6 Xposition Yposition Zposition Zrotation Xrotation Yrotation
      JOINT BN_Leg_L_12
      {
        OFFSET 9.87129 0 0
        CHANNELS 6 Xposition Yposition Zposition Zrotation Xrotation Yrotation
        JOINT BN_Leg_L_13
        {
          OFFSET 21.8657 0 0
          CHANNELS 6 Xposition Yposition Zposition Zrotation Xrotation Yrotation
          JOINT BN_Leg_L_14
          {
            OFFSET 11.0011 0 0
            CHANNELS 6 Xposition Yposition Zposition Zrotation Xrotation Yrotation
            JOINT BN_Leg_L_15
            {
              OFFSET 12.8798 0 0
              CHANNELS 6 Xposition Yposition Zposition Zrotation Xrotation Yrotation
              JOINT BN_Leg_L_15Nub
              {
                OFFSET 13.0642 0 0
                CHANNELS 6 Xposition Yposition Zposition Zrotation Xrotation Yrotation
                End Site
                {
                  OFFSET 0 0 0
                }
              }
            }
          }
        }
      }
    }
    JOINT BN_leg_L_06
    {
      OFFSET 6.51511 7.99896 -4.29091
      CHANNELS 6 Xposition Yposition Zposition Zrotation Xrotation Yrotation
      JOINT BN_Leg_L_07
      {
        OFFSET 9.03709 0 0
        CHANNELS 6 Xposition Yposition Zposition Zrotation Xrotation Yrotation
        JOINT BN_Leg_L_08
        {
          OFFSET 18.7638 0 0
          CHANNELS 6 Xposition Yposition Zposition Zrotation Xrotation Yrotation
          JOINT BN_Leg_L_09
          {
            OFFSET 10.9666 0 0
            CHANNELS 6 Xposition Yposition Zposition Zrotation Xrotation Yrotation
            JOINT BN_Leg_L_10
            {
              OFFSET 10.8726 0 0
              CHANNELS 6 Xposition Yposition Zposition Zrotation Xrotation Yrotation
              JOINT BN_Leg_L_10Nub
              {
                OFFSET 11.2649 0 0
                CHANNELS 6 Xposition Yposition Zposition Zrotation Xrotation Yrotation
                End Site
                {
                  OFFSET 0 0 0
                }
              }
            }
          }
        }
      }
    }
    JOINT BN_leg_L_01
    {
      OFFSET 10.8127 7.82776 -6.29737
      CHANNELS 6 Xposition Yposition Zposition Zrotation Xrotation Yrotation
      JOINT BN_leg_L_02
      {
        OFFSET 8.91072 0 0
        CHANNELS 6 Xposition Yposition Zposition Zrotation Xrotation Yrotation
        JOINT BN_leg_L_03
        {
          OFFSET 15.6024 0 0
          CHANNELS 6 Xposition Yposition Zposition Zrotation Xrotation Yrotation
          JOINT BN_leg_L_04
          {
            OFFSET 9.68174 0 0
            CHANNELS 6 Xposition Yposition Zposition Zrotation Xrotation Yrotation
            JOINT BN_leg_L_05
            {
              OFFSET 10.6982 0 0
              CHANNELS 6 Xposition Yposition Zposition Zrotation Xrotation Yrotation
              JOINT BN_Leg_L_05Nub
              {
                OFFSET 11.1504 0 0
                CHANNELS 6 Xposition Yposition Zposition Zrotation Xrotation Yrotation
                End Site
                {
                  OFFSET 0 0 0
                }
              }
            }
          }
        }
      }
    }
    JOINT BN_Eye_L_01
    {
      OFFSET 28.5502 2.54627 -3.93739
      CHANNELS 6 Xposition Yposition Zposition Zrotation Xrotation Yrotation
      JOINT BN_Eye_L_02
      {
        OFFSET 2.30267 0 0
        CHANNELS 6 Xposition Yposition Zposition Zrotation Xrotation Yrotation
        JOINT BN_Eye_L_03
        {
          OFFSET 5.31894 0 0
          CHANNELS 6 Xposition Yposition Zposition Zrotation Xrotation Yrotation
          JOINT BN_Eye_L_04
          {
            OFFSET 9.71244 0 0
            CHANNELS 6 Xposition Yposition Zposition Zrotation Xrotation Yrotation
            End Site
            {
              OFFSET 0 0 0
            }
          }
        }
      }
    }
    JOINT BN_Eye_R_01
    {
      OFFSET 28.5502 -2.54612 -3.93738
      CHANNELS 6 Xposition Yposition Zposition Zrotation Xrotation Yrotation
      JOINT BN_Eye_R_02
      {
        OFFSET 2.30267 0 0
        CHANNELS 6 Xposition Yposition Zposition Zrotation Xrotation Yrotation
        JOINT BN_Eye_R_03
        {
          OFFSET 5.31896 0 0
          CHANNELS 6 Xposition Yposition Zposition Zrotation Xrotation Yrotation
          JOINT BN_Eye_R_04
          {
            OFFSET 9.71244 0 0
            CHANNELS 6 Xposition Yposition Zposition Zrotation Xrotation Yrotation
            End Site
            {
              OFFSET 0 0 0
            }
          }
        }
      }
    }
    JOINT BN_Arm_L_01
    {
      OFFSET 15.9737 8.03546 -8.36195
      CHANNELS 6 Xposition Yposition Zposition Zrotation Xrotation Yrotation
      JOINT BN_Arm_L_02
      {
        OFFSET 16.8869 0 0
        CHANNELS 6 Xposition Yposition Zposition Zrotation Xrotation Yrotation
        JOINT BN_Arm_L_03
        {
          OFFSET 8.42975 0 0
          CHANNELS 6 Xposition Yposition Zposition Zrotation Xrotation Yrotation
          JOINT BN_Arm_L_04
          {
            OFFSET 7.53864 -0.0312023 2.09083
            CHANNELS 6 Xposition Yposition Zposition Zrotation Xrotation Yrotation
            End Site
            {
              OFFSET 0 0 0
            }
          }
        }
      }
    }
    JOINT BN_Arm_R_01
    {
      OFFSET 14.7806 -6.70232 -9.44366
      CHANNELS 6 Xposition Yposition Zposition Zrotation Xrotation Yrotation
      JOINT BN_Arm_R_02
      {
        OFFSET 19.9827 0 0
        CHANNELS 6 Xposition Yposition Zposition Zrotation Xrotation Yrotation
        JOINT BN_Arm_R_03
        {
          OFFSET 17.4553 0 0
          CHANNELS 6 Xposition Yposition Zposition Zrotation Xrotation Yrotation
          JOINT BN_Arm_R_04
          {
            OFFSET 13.3834 -2.22657 7.3982
            CHANNELS 6 Xposition Yposition Zposition Zrotation Xrotation Yrotation
            End Site
            {
              OFFSET 0 0 0
            }
          }
        }
      }
    }
  }
}
MOTION
Frames:	4
Frame Time:	0.0333333
0.0567334 15.1063 12.599 0.00350138 -2.14398e-019 90 -3.49358 -5.29363 -0.000213493 -19.0452 -89.9945 -54.7306 10.8127 -7.82778 -6.29737 -92.3758 47.4246 14.971 8.91072 0 -4.76837e-007 60.5437 0.0264992 1.28031 15.6024 1.43051e-006 1.77636e-015 -93.8642 9.93792 12.8035 9.68172 -7.10544e-015 -4.44089e-016 -39.1132 -1.35095 -15.334 10.6982 -7.10544e-015 -4.76837e-007 -57.1044 4.11162 -2.66685 11.1504 0 8.88178e-016 -8.51993e-007 9.71126e-007 2.57223e-007 6.5151 -7.99897 -4.2909 -106.265 29.2634 5.68181 9.03708 4.76837e-007 0 74.4982 -1.83139 -2.7954 18.7638 1.77636e-015 -1.77636e-015 -84.0168 13.3398 15.6448 10.9665 7.10543e-015 0 -41.583 -0.333943 -2.32277 10.8726 3.8147e-006 0 -39.7554 -0.0156474 -3.46459 11.2648 3.8147e-006 9.53674e-007 3.72689e-007 1.01774e-007 1.06985e-007 2.71429 -8.18693 -0.209972 -118.05 34.3347 -12.4528 9.87129 -1.77636e-015 0 74.2347 2.14561 -0.584311 21.8657 1.90735e-006 -9.53674e-007 -94.3546 4.01473 6.90417 11.0011 -3.8147e-006 -9.53674e-007 -15.1577 -0.312191 -0.729509 12.8798 -1.42108e-014 2.86102e-006 -23.5903 -0.0337141 0.092995 13.0642 3.81469e-006 9.53674e-007 2.95304e-007 -5.52452e-007 -3.43488e-007 2.71429 8.18692 -0.209986 115.223 -29.7024 -7.44851 9.8713 -4.76837e-007 -1.77636e-015 -78.8408 -2.09223 -0.61069 21.8657 3.8147e-006 -9.53674e-007 91.2628 -8.72823 12.0977 11.0011 7.10543e-015 -9.53674e-007 24.109 0.363408 -0.96089 12.8797 3.8147e-006 5.72205e-006 34.5301 0.0319111 0.00840215 13.0642 7.6294e-006 -9.53675e-007 -3.20483e-008 9.83336e-006 6.20206e-007 6.51512 7.99896 -4.2909 97.9032 -23.9785 10.4131 9.03709 -8.88178e-016 1.77636e-015 -69.5666 1.73497 -2.68766 18.7638 1.77636e-015 1.77636e-015 80.5243 -10.8114 12.1746 10.9666 -3.55271e-015 -1.77636e-015 42.6028 0.318991 -2.38797 10.8726 1.14441e-005 -9.53674e-007 40.7695 0.0142041 -3.51651 11.2648 -7.10542e-015 1.77636e-015 -9.49558e-008 1.84858e-006 -1.27459e-006 10.8127 7.82776 -6.29737 82.7332 -42.5785 26.4445 8.91071 9.53674e-007 0 -48.661 0.232249 0.937879 15.6024 -1.19209e-006 -2.86102e-006 71.0568 -9.43325 16.4438 9.68173 7.10543e-015 0 40.3047 1.43891 -15.6038 10.6982 -3.8147e-006 3.55271e-015 58.513 -4.11163 -2.82291 11.1504 0 -9.53674e-007 1.55263e-006 9.2272e-006 8.17014e-007 28.5502 2.54627 -3.93738 102.529 -23.4872 76.0394 2.30267 1.90735e-006 1.19209e-007 -76.4974 3.05007 -7.57988 5.31894 -9.53674e-007 -2.38419e-007 -49.5463 2.11805 -15.1116 9.71242 0 2.86102e-006 -19.1237 -0.00194429 3.10673 28.5502 -2.54612 -3.93738 89.9968 -39.1541 129.609 2.30267 3.55271e-015 -3.35276e-007 -63.5342 -0.966223 9.72396 5.31895 9.53675e-007 -8.88179e-016 -41.9272 -0.424854 7.74937 9.71243 -1.77636e-015 -4.76837e-007 -22.5615 -1.21319 0.200209 15.9737 8.03546 -8.36195 39.9795 56.2703 44.14 16.887 -4.76837e-007 -1.77636e-015 -101.951 -9.21982e-006 -3.70977e-006 8.42975 0 2.86102e-006 -36.1009 -8.12149e-007 3.84427e-007 7.53864 -0.0312128 2.09083 -12.3468 -1.50782 15.5192 14.7806 -6.70232 -9.44365 -70.7456 -27.2796 10.8055 19.9827 -5.96046e-008 -1.77636e-015 64.0147 1.86327 3.12573 17.4553 0 -2.86102e-006 76.812 1.8623 15.8164 13.3834 -2.22655 7.39819 8.79989 1.6642 15.0138 
-0.00515674 15.1073 12.5991 0.307437 -0.168236 89.9344 -3.49325 -5.30153 2.89929e-009 -169.104 -89.9891 155.187 10.8127 -7.82778 -6.29737 -92.7909 47.3404 15.3259 8.91072 1.77636e-015 -4.76837e-007 60.4464 0.0243242 1.28036 15.6024 1.43051e-006 2.66454e-015 -93.726 10.057 12.9508 9.68172 7.10544e-015 -1.77636e-015 -39.1396 -1.35183 -15.3396 10.6982 7.10544e-015 -4.76837e-007 -57.1348 4.11203 -2.66996 11.1504 1.42109e-014 3.55271e-015 -8.51993e-007 9.71126e-007 2.57223e-007 6.5151 -7.99897 -4.2909 -106.602 29.2226 6.07511 9.03708 4.76837e-007 3.55271e-015 74.4375 -1.82988 -2.79662 18.7638 -3.55272e-015 1.77636e-015 -83.9301 13.3762 15.7071 10.9665 -3.55272e-015 0 -41.5694 -0.332072 -2.32193 10.8726 3.8147e-006 1.77636e-015 -39.7419 -0.0160555 -3.46457 11.2648 3.8147e-006 9.53674e-007 3.72689e-007 1.01774e-007 1.06985e-007 2.71429 -8.18693 -0.209972 -118.444 34.32 -11.9235 9.87129 3.55271e-015 7.10543e-015 74.1824 2.14614 -0.582353 21.8657 1.90735e-006 -9.53674e-007 -94.3037 3.99124 6.86055 11.0011 -3.8147e-006 -9.53674e-007 -15.1198 -0.312646 -0.729408 12.8798 -2.13163e-014 2.86102e-006 -23.5443 -0.0336394 0.093022 13.0642 3.81469e-006 9.53674e-007 2.95304e-007 -5.52452e-007 -3.43488e-007 2.71429 8.18692 -0.209986 114.923 -29.8988 -7.849 9.8713 -4.76837e-007 0 -78.9032 -2.09156 -0.612969 21.8657 3.8147e-006 -9.53674e-007 91.3263 -8.79933 12.182 11.0011 -1.42109e-014 -9.53674e-007 24.1715 0.362505 -0.960961 12.8797 3.8147e-006 5.72205e-006 34.6038 0.0319219 0.00836109 13.0642 7.6294e-006 -9.53675e-007 -3.20483e-008 9.83336e-006 6.20206e-007 6.51512 7.99896 -4.2909 97.5225 -24.1419 9.99364 9.03709 8.88178e-016 0 -69.5806 1.73542 -2.68716 18.7638 0 -5.32907e-015 80.5695 -10.8587 12.1989 10.9666 3.55271e-015 3.55271e-015 42.6679 0.314743 -2.38999 10.8726 1.14441e-005 -9.53674e-007 40.8362 0.0103733 -3.51622 11.2648 4.26325e-014 -1.06581e-014 -9.49558e-008 1.84858e-006 -1.27459e-006 10.8127 7.82776 -6.29737 82.1185 -42.7258 25.8825 8.91071 9.53674e-007 8.88178e-015 -48.6533 0.232375 0.937848 15.6024 -1.19209e-006 -2.86102e-006 71.1019 -9.48869 16.4649 9.68173 7.10543e-015 1.06581e-014 40.3765 1.44805 -15.6178 10.6982 -3.8147e-006 -2.30926e-014 58.5976 -4.11008 -2.83231 11.1504 -2.13163e-014 -9.53674e-007 -8.46528e-006 9.2272e-006 8.26819e-007 28.5502 2.54627 -3.93738 102.509 -23.545 75.9886 2.30267 1.90735e-006 1.19209e-007 -71.1929 -8.46937 -5.50827 5.31894 -9.53674e-007 -2.38419e-007 -37.7907 -1.00015 -14.6827 9.71242 8.88179e-015 2.86102e-006 -16.2889 0.104666 2.91163 28.5502 -2.54612 -3.93738 89.9968 -39.1541 129.609 2.30267 0 -3.35276e-007 -63.3695 -0.703586 10.2613 5.31895 9.53675e-007 -4.44089e-015 -41.2446 -0.270073 8.10832 9.71243 0 -4.76837e-007 -22.6211 -1.22168 0.873488 15.9737 8.03546 -8.36195 40.0802 56.1861 43.9334 16.887 -4.76837e-007 1.06581e-014 -101.851 0.0509119 -0.0727874 8.42975 3.55271e-015 2.86102e-006 -36.4286 -6.23876e-006 8.10076e-006 7.53864 -0.0312128 2.09083 -11.9855 -0.992068 3.23852 14.7806 -6.70232 -9.44365 -70.1383 -27.2557 12.738 19.9827 -5.96046e-008 5.32907e-015 62.4114 2.08671 2.97406 17.4553 -2.27374e-013 -2.86102e-006 76.2698 1.77215 15.712 13.3834 -2.22655 7.39819 8.81158 1.65253 14.8898 
-0.158367 15.1108 12.5994 0.972492 -0.574273 89.783 -3.49325 -5.32359 5.26101e-009 -172.728 -89.944 151.502 10.8127 -7.82778 -6.29737 -93.6684 47.1755 16.1055 8.91072 1.77636e-015 -4.76837e-007 60.1565 0.0178449 1.28046 15.6024 1.43051e-006 -8.88178e-016 -93.3068 10.3271 13.3028 9.68172 7.10544e-015 -2.66453e-015 -39.2371 -1.3594 -15.3638 10.6982 -1.42109e-014 -4.76837e-007 -57.2459 4.11403 -2.6828 11.1504 7.10544e-015 -1.77636e-015 -8.51993e-007 9.71126e-007 2.57223e-007 6.5151 -7.99897 -4.2909 -107.307 29.1848 6.97931 9.03708 4.76837e-007 5.32907e-015 74.2329 -1.82629 -2.7896 18.7638 -1.24345e-014 -1.77636e-015 -83.6575 13.4554 15.8289 10.9665 1.77636e-014 1.77636e-015 -41.5582 -0.331166 -2.32146 10.8726 3.8147e-006 3.55271e-015 -39.7331 -0.0174982 -3.46131 11.2648 3.8147e-006 9.53674e-007 3.72689e-007 1.01774e-007 1.06985e-007 2.71429 -8.18693 -0.209972 -119.269 34.3369 -10.6877 9.87129 7.10543e-015 1.77636e-015 74.0012 2.14797 -0.575566 21.8657 1.90735e-006 -9.53674e-007 -94.1164 3.91641 6.71071 11.0011 -3.8147e-006 -9.53674e-007 -15.0604 -0.314282 -0.725812 12.8798 7.10542e-015 2.86102e-006 -23.4701 -0.033519 0.0930655 13.0642 3.81469e-006 9.53674e-007 2.95304e-007 -5.52452e-007 -3.43488e-007 2.71429 8.18692 -0.209986 114.289 -30.3594 -8.75327 9.8713 -4.76837e-007 3.55271e-015 -79.1051 -2.08939 -0.620334 21.8657 3.8147e-006 -9.53674e-007 91.5293 -8.97433 12.389 11.0011 7.10543e-015 -9.53674e-007 24.304 0.35955 -0.963416 12.8797 3.8147e-006 5.72205e-006 34.7641 0.0319451 0.00827178 13.0642 7.6294e-006 -9.53674e-007 -3.20483e-008 9.83336e-006 6.20206e-007 6.51512 7.99896 -4.2909 96.6782 -24.5017 9.04426 9.03709 1.77636e-015 -5.32907e-015 -69.67 1.7392 -2.6843 18.7638 0 -7.10543e-015 80.7297 -10.9642 12.2565 10.9666 -3.55271e-015 3.55271e-015 42.8173 0.306424 -2.39305 10.8726 1.14441e-005 -9.53674e-007 40.9861 0.00191501 -3.51537 11.2648 -7.10542e-015 -3.55271e-015 -9.49558e-008 1.84858e-006 -1.27459e-006 10.8127 7.82776 -6.29737 80.7192 -43.0356 24.5938 8.91071 9.53674e-007 1.77636e-015 -48.6867 0.231827 0.937984 15.6024 -1.19209e-006 -2.86102e-006 71.2656 -9.62738 16.524 9.68173 -3.55271e-015 8.88178e-015 40.5231 1.45834 -15.6517 10.6982 -3.8147e-006 -5.32907e-015 58.7712 -4.11141 -2.85309 11.1504 -3.55272e-015 -9.53674e-007 -8.46528e-006 9.2272e-006 1.81701e-006 28.5502 2.54627 -3.93738 102.457 -23.7088 75.8416 2.30267 1.90735e-006 1.19209e-007 -61.898 -25.0715 -2.63254 5.31894 -9.53674e-007 -2.38419e-007 -21.0985 -5.42945 -14.0935 9.71242 1.13687e-013 2.86102e-006 -12.286 0.254174 2.402 28.5502 -2.54612 -3.93738 89.9967 -39.1541 129.608 2.30267 -3.55271e-015 -3.35276e-007 -62.9595 -0.0101351 10.8699 5.31895 9.53675e-007 0 -39.4471 0.13732 8.46188 9.71243 -7.10543e-015 -4.76837e-007 -22.6581 -1.22797 1.97479 15.9737 8.03546 -8.36195 40.3591 55.9511 43.3683 16.887 -4.76837e-007 8.88179e-015 -101.572 0.192128 -0.269493 8.42975 1.42109e-014 2.86102e-006 -37.2956 -8.23386e-007 1.40853e-006 7.53864 -0.0312128 2.09083 -11.45 -0.471692 -8.00949 14.7806 -6.70232 -9.44365 -68.7498 -27.2398 16.1077 19.9827 -5.96046e-008 -1.77636e-015 60.0892 2.42588 2.53464 17.4553 -2.27374e-013 -2.86102e-006 74.8868 1.54226 15.428 13.3835 -2.22655 7.39819 8.83546 1.60659 14.4563 
-0.378026 15.1173 12.5999 1.69871 -1.14105 89.5817 -3.49325 -5.35633 8.75164e-009 -172.058 -89.8773 152.075 10.8127 -7.82778 -6.29737 -94.5797 47.0558 16.9568 8.91072 0 -4.76837e-007 59.6502 0.00652706 1.28057 15.6024 1.43051e-006 -6.21725e-015 -92.574 10.6587 13.7448 9.68172 7.10544e-015 -8.88178e-016 -39.4365 -1.37494 -15.4088 10.6982 -3.55272e-014 -4.76837e-007 -57.4846 4.11161 -2.7076 11.1504 2.13163e-014 6.21725e-015 -8.51993e-007 9.71126e-007 2.57223e-007 6.5151 -7.99897 -4.2909 -108.022 29.2793 8.06945 9.03708 4.76837e-007 1.77636e-015 73.8302 -1.81835 -2.78279 18.7638 -1.24345e-014 -5.32907e-015 -83.1498 13.5192 15.928 10.9665 -3.55272e-015 -1.77636e-015 -41.5768 -0.333382 -2.32248 10.8726 3.8147e-006 7.10543e-015 -39.7492 -0.0158219 -3.4646 11.2648 3.8147e-006 9.53674e-007 3.72689e-007 1.01774e-007 1.06985e-007 2.71429 -8.18693 -0.209972 -120.098 34.4915 -9.15219 9.87129 1.77636e-015 -3.55271e-015 73.6313 2.15164 -0.561687 21.8657 1.90735e-006 -9.53674e-007 -93.7328 3.78997 6.41756 11.0011 -3.8147e-006 -9.53674e-007 -15.0401 -0.314334 -0.726466 12.8798 -1.42108e-014 2.86102e-006 -23.4459 -0.0334795 0.0930797 13.0642 3.81469e-006 9.53674e-007 2.95304e-007 -5.52452e-007 -3.43488e-007 2.71429 8.18692 -0.209986 113.654 -30.9472 -9.8035 9.8713 -4.76837e-007 -3.55271e-015 -79.4678 -2.08542 -0.633545 21.8657 3.8147e-006 -9.53674e-007 91.8921 -9.19538 12.659 11.0011 2.13163e-014 -9.53674e-007 24.4489 0.356276 -0.966162 12.8797 3.8147e-006 5.72205e-006 34.9395 0.0319702 0.00817399 13.0642 7.6294e-006 -9.53675e-007 -3.20483e-008 9.83336e-006 6.20206e-007 6.51512 7.99896 -4.2909 95.741 -24.9236 7.94243 9.03709 0 -1.77636e-015 -69.9093 1.74783 -2.67607 18.7638 0 0 81.0889 -11.0947 12.339 10.9666 -3.55271e-015 7.10543e-015 42.9565 0.298671 -2.39587 10.8726 1.14441e-005 -9.53674e-007 41.1252 -0.0051876 -3.51372 11.2648 7.10542e-015 -3.55271e-015 -9.49558e-008 1.84858e-006 -1.27459e-006 10.8127 7.82776 -6.29737 79.0449 -43.3751 23.0411 8.91071 9.53674e-007 7.10543e-015 -48.8391 0.229333 0.938597 15.6024 -1.19209e-006 -2.86102e-006 71.6188 -9.83057 16.6195 9.68173 -3.55271e-015 0 40.6689 1.46773 -15.6857 10.6982 -3.8147e-006 0 58.9423 -4.11181 -2.87262 11.1504 3.55272e-015 -9.53674e-007 -8.46528e-006 9.2272e-006 1.81702e-006 28.5502 2.54627 -3.93738 102.371 -23.9741 75.6082 2.30267 1.90735e-006 1.19209e-007 -59.3486 -27.9451 -2.02448 5.31894 -9.53674e-007 -2.38419e-007 -18.8567 -6.02221 -13.8698 9.71242 1.49214e-013 2.86102e-006 -11.776 0.270864 1.61959 28.5502 -2.54612 -3.93738 89.9966 -39.1541 129.608 2.30267 0 -3.35276e-007 -62.3473 1.03683 11.5474 5.31895 9.53675e-007 -1.77636e-015 -36.7132 0.754177 8.8238 9.71243 0 -4.76837e-007 -22.6788 -1.23501 3.43584 15.9737 8.03546 -8.36195 40.7861 55.5562 42.4681 16.887 -4.76837e-007 5.32907e-015 -101.115 0.411751 -0.583844 8.42975 7.10543e-015 2.86102e-006 -38.6085 1.16349e-006 1.43819e-006 7.53864 -0.0312128 2.09083 -13.3172 -1.07739 3.46011 14.7806 -6.70232 -9.44365 -67.6332 -27.3639 18.5345 19.9827 -5.96046e-008 5.32907e-015 57.4195 2.82812 1.79781 17.4553 -4.54747e-013 -2.86102e-006 72.9002 1.21373 14.9665 13.3835 -2.22655 7.3982 8.88552 1.51331 13.571 
